# xmcd
#
# Track frame offsets:
# 150
# 27354
# 49539
# 68641
#
# Disc length: 1273 seconds
#
# Revision: 1
# Processed by: cddbd v1.5.2PL0 Copyright (c) Steve Scherf et al.
# Submitted via: B's Recorder GOLD CDDB Client
#
DISCID=2a04f704
DTITLE=MISIA - 逢いたくていま
DYEAR=1900
DGENRE=
TTITLE0=逢いたくていま
TTITLE1=唇と唇
TTITLE2=LOVE TRULY
TTITLE3=逢いたくていま(Instrumental)
EXTD=
EXTT0=
EXTT1=
EXTT2=
EXTT3=
PLAYORDER=
